<?xml version="1.0" encoding="us-ascii" standalone="no"?><svg xmlns="http://www.w3.org/2000/svg" xmlns:xlink="http://www.w3.org/1999/xlink" contentStyleType="text/css" height="1523px" preserveAspectRatio="none" style="width:732px;height:1523px;" version="1.1" viewBox="0 0 732 1523" width="732px" zoomAndPan="magnify"><defs/><g><!--cluster Sistem podpore plu?enju--><g id="cluster_Sistem podpore plu&#382;enju"><rect fill="none" height="1309" rx="2.5" ry="2.5" style="stroke:#181818;stroke-width:1.0;" width="551" x="175" y="208.5"/><text fill="#000000" font-family="sans-serif" font-size="14" font-weight="bold" lengthAdjust="spacing" textLength="197" x="352" y="223.4951">Sistem podpore plu&#382;enju</text></g><!--entity ZS--><g id="elem_ZS"><ellipse cx="333" cy="335" fill="#FFFFFF" rx="8" ry="8" style="stroke:#000000;stroke-width:0.5;"/><path d="M333,343 L333,370 M320,351 L346,351 M333,370 L320,385 M333,370 L346,385 " fill="none" style="stroke:#000000;stroke-width:0.5;"/><text fill="#000000" font-family="sans-serif" font-size="14" lengthAdjust="spacing" textLength="101" x="282.5" y="399.4951">Zaledni sistem</text></g><g id="elem_DDSP"><ellipse cx="332.7877" cy="267.3575" fill="#FFFFFF" rx="107.2877" ry="23.8575" style="stroke:#5FB8EC;stroke-width:0.5;"/><text fill="#000000" font-family="sans-serif" font-size="14" lengthAdjust="spacing" textLength="180" x="242.7877" y="270.2042">Dostop do stanja plu&#382;enja</text></g><g id="elem_P"><ellipse cx="333.1531" cy="452.6013" fill="#FFFFFF" rx="42.1531" ry="14.6013" style="stroke:#5FB8EC;stroke-width:0.5;"/><text fill="#000000" font-family="sans-serif" font-size="14" lengthAdjust="spacing" textLength="43" x="308.6531" y="456.3489">Prijava</text></g><g id="elem_KP"><ellipse cx="333.228" cy="521.5456" fill="#FFFFFF" rx="85.728" ry="19.5456" style="stroke:#5FB8EC;stroke-width:0.5;"/><text fill="#000000" font-family="sans-serif" font-size="14" lengthAdjust="spacing" textLength="132" x="267.228" y="524.3923">Kontaktiranje pluga</text></g><g id="elem_USPISP"><ellipse cx="333.1004" cy="705.3201" fill="#FFFFFF" rx="142.1004" ry="30.8201" style="stroke:#5FB8EC;stroke-width:0.5;"/><text fill="#000000" font-family="sans-serif" font-size="14" lengthAdjust="spacing" textLength="254" x="206.1004" y="708.1668">Urejanje &#353;tevila plugov in &#353;tartnih baz</text></g><g id="elem_USP"><ellipse cx="333.1205" cy="979.5241" fill="#FFFFFF" rx="123.1205" ry="27.0241" style="stroke:#5FB8EC;stroke-width:0.5;"/><text fill="#000000" font-family="sans-serif" font-size="14" lengthAdjust="spacing" textLength="214" x="226.1205" y="982.3708">Usmeritev Samostojnega pluga</text></g><g id="elem_RO"><ellipse cx="332.9263" cy="1154.2853" fill="#FFFFFF" rx="84.4263" ry="19.2853" style="stroke:#5FB8EC;stroke-width:0.5;"/><text fill="#000000" font-family="sans-serif" font-size="14" lengthAdjust="spacing" textLength="129" x="268.305" y="1157.1739">Registracija osebja</text></g><g id="elem_PPG"><ellipse cx="332.8655" cy="1324.2731" fill="#FFFFFF" rx="119.3655" ry="26.2731" style="stroke:#5FB8EC;stroke-width:0.5;"/><text fill="#000000" font-family="sans-serif" font-size="14" lengthAdjust="spacing" textLength="206" x="229.8655" y="1327.1198">Pridobitev pozabljenega gesla</text></g><g id="elem_PR1"><ellipse cx="332.8592" cy="1481.3718" fill="#FFFFFF" rx="84.8592" ry="19.3718" style="stroke:#5FB8EC;stroke-width:0.5;"/><text fill="#000000" font-family="sans-serif" font-size="14" lengthAdjust="spacing" textLength="130" x="267.8592" y="1484.2185">Poskus registracije</text></g><g id="elem_PR2"><ellipse cx="333.2318" cy="1406.7464" fill="#FFFFFF" rx="89.2318" ry="20.2464" style="stroke:#5FB8EC;stroke-width:0.5;"/><text fill="#000000" font-family="sans-serif" font-size="14" lengthAdjust="spacing" textLength="140" x="263.2318" y="1409.593">Potrditev registracije</text></g><g id="elem_PSB"><ellipse cx="333.1608" cy="599.5322" fill="#FFFFFF" rx="103.1608" ry="23.0322" style="stroke:#5FB8EC;stroke-width:0.5;"/><text fill="#000000" font-family="sans-serif" font-size="14" lengthAdjust="spacing" textLength="171" x="247.6608" y="602.3788">Posodobitev &#353;tartnih baz</text></g><g id="elem_PDA"><ellipse cx="332.9095" cy="793.5819" fill="#FFFFFF" rx="95.9095" ry="21.5819" style="stroke:#5FB8EC;stroke-width:0.5;"/><text fill="#000000" font-family="sans-serif" font-size="14" lengthAdjust="spacing" textLength="155" x="255.4095" y="796.4286">Potrditev (de)aktivacije</text></g><g id="elem_DZ"><ellipse cx="623.0368" cy="1481.3074" fill="#FFFFFF" rx="87.0368" ry="19.8074" style="stroke:#5FB8EC;stroke-width:0.5;"/><text fill="#000000" font-family="sans-serif" font-size="14" lengthAdjust="spacing" textLength="135" x="555.5368" y="1484.154">Dodajanje zahtevka</text></g><g id="elem_IZ"><ellipse cx="332.9504" cy="883.5901" fill="#FFFFFF" rx="73.4504" ry="17.0901" style="stroke:#5FB8EC;stroke-width:0.5;"/><text fill="#000000" font-family="sans-serif" font-size="14" lengthAdjust="spacing" textLength="102" x="278.9504" y="887.3376">Izbira zahtevka</text></g><g id="elem_DU"><ellipse cx="333.1693" cy="1062.6339" fill="#FFFFFF" rx="93.6693" ry="21.1339" style="stroke:#5FB8EC;stroke-width:0.5;"/><text fill="#000000" font-family="sans-serif" font-size="14" lengthAdjust="spacing" textLength="150" x="258.1693" y="1065.4805">Dodajanje uporabnika</text></g><g id="elem_PG"><ellipse cx="332.7839" cy="1227.3568" fill="#FFFFFF" rx="79.7839" ry="18.3568" style="stroke:#5FB8EC;stroke-width:0.5;"/><text fill="#000000" font-family="sans-serif" font-size="14" lengthAdjust="spacing" textLength="118" x="272.0356" y="1230.7613">Pozabljeno geslo</text></g><!--entity A--><g id="elem_A"><ellipse cx="333" cy="125" fill="#FFFFFF" rx="8" ry="8" style="stroke:#000000;stroke-width:0.5;"/><path d="M333,133 L333,160 M320,141 L346,141 M333,160 L320,175 M333,160 L346,175 " fill="none" style="stroke:#000000;stroke-width:0.5;"/><text fill="#000000" font-family="sans-serif" font-size="14" lengthAdjust="spacing" textLength="43" x="311.5" y="189.4951">Admin</text></g><!--entity MP--><g id="elem_MP"><ellipse cx="67" cy="465" fill="#FFFFFF" rx="8" ry="8" style="stroke:#000000;stroke-width:0.5;"/><path d="M67,473 L67,500 M54,481 L80,481 M67,500 L54,515 M67,500 L80,515 " fill="none" style="stroke:#000000;stroke-width:0.5;"/><text fill="#000000" font-family="sans-serif" font-size="14" lengthAdjust="spacing" textLength="122" x="6" y="529.4951">Manager plu&#382;enja</text></g><!--entity PB--><g id="elem_PB"><ellipse cx="333" cy="14" fill="#FFFFFF" rx="8" ry="8" style="stroke:#000000;stroke-width:0.5;"/><path d="M333,22 L333,49 M320,30 L346,30 M333,49 L320,64 M333,49 L346,64 " fill="none" style="stroke:#000000;stroke-width:0.5;"/><text fill="#000000" font-family="sans-serif" font-size="14" lengthAdjust="spacing" textLength="118" x="274" y="78.4951">Podatkovna baza</text></g><!--reverse link MP to A--><g id="link_MP_A"><path d="M75.422,438.6432 C84.222,381.9732 105.53,292.87 167,227.5 C207.13,184.83 276.67,165.55 311.25,158.25 " fill="none" id="MP-backto-A" style="stroke:#000000;stroke-width:1.0;"/><polygon fill="none" points="72.66,456.43,81.351,439.5638,69.4931,437.7225,72.66,456.43" style="stroke:#000000;stroke-width:1.0;"/></g><!--link A to DDSP--><g id="link_A_DDSP"><path d="M333,192.62 C333,209.49 333,220.36 333,237.22 " fill="none" id="A-to-DDSP" style="stroke:#000000;stroke-width:1.0;"/><polygon fill="#000000" points="333,243.22,337,234.22,333,238.22,329,234.22,333,243.22" style="stroke:#000000;stroke-width:1.0;"/></g><!--link A to P--><g id="link_A_P"><path d="M311.27,156.6 C268.7,162.08 175.97,181.19 147.5,245 C133.28,276.86 133.28,370.14 147.5,402 C170.69,453.97 239.2775,459.4094 286.5175,457.0494 " fill="none" id="A-to-P" style="stroke:#000000;stroke-width:1.0;"/><polygon fill="#000000" points="292.51,456.75,283.3216,453.204,287.5162,456.9995,283.7208,461.1941,292.51,456.75" style="stroke:#000000;stroke-width:1.0;"/></g><!--link A to KP--><g id="link_A_KP"><path d="M311.27,156.6 C268.7,162.08 175.97,181.19 147.5,245 C127.4,290.05 127.4,421.95 147.5,467 C164.19,504.4 201.1376,517.8591 241.4876,522.3991 " fill="none" id="A-to-KP" style="stroke:#000000;stroke-width:1.0;"/><polygon fill="#000000" points="247.45,523.07,238.9537,518.0888,242.4814,522.511,238.0592,526.0386,247.45,523.07" style="stroke:#000000;stroke-width:1.0;"/></g><!--link A to USPISP--><g id="link_A_USPISP"><path d="M311.27,156.6 C268.7,162.08 175.97,181.19 147.5,245 C130.43,283.25 130.43,583.75 147.5,622 C161.6,653.61 186.4783,671.1267 218.7483,683.3367 " fill="none" id="A-to-USPISP" style="stroke:#000000;stroke-width:1.0;"/><polygon fill="#000000" points="224.36,685.46,217.3579,678.5339,219.6836,683.6906,214.5269,686.0162,224.36,685.46" style="stroke:#000000;stroke-width:1.0;"/></g><!--link A to USP--><g id="link_A_USP"><path d="M311.27,156.6 C268.7,162.08 175.97,181.19 147.5,245 C132.67,278.23 132.67,866.77 147.5,900 C162.49,933.6 190.6793,951.1694 225.4593,962.3794 " fill="none" id="A-to-USP" style="stroke:#000000;stroke-width:1.0;"/><polygon fill="#000000" points="231.17,964.22,223.831,957.6519,226.4111,962.6861,221.3769,965.2662,231.17,964.22" style="stroke:#000000;stroke-width:1.0;"/></g><!--link A to RO--><g id="link_A_RO"><path d="M311.27,156.6 C268.7,162.08 175.97,181.19 147.5,245 C128.53,287.52 128.53,1040.48 147.5,1083 C165.29,1122.87 204.8967,1139.6736 246.3867,1147.6036 " fill="none" id="A-to-RO" style="stroke:#000000;stroke-width:1.0;"/><polygon fill="#000000" points="252.28,1148.73,244.1909,1143.1115,247.3689,1147.7913,242.6891,1150.9693,252.28,1148.73" style="stroke:#000000;stroke-width:1.0;"/></g><!--link A to PPG--><g id="link_A_PPG"><path d="M311.27,156.6 C268.7,162.08 175.97,181.19 147.5,245 C124.84,295.78 124.84,1195.22 147.5,1246 C162.6,1279.85 191.2727,1297.3416 226.4027,1308.3116 " fill="none" id="A-to-PPG" style="stroke:#000000;stroke-width:1.0;"/><polygon fill="#000000" points="232.13,1310.1,224.7314,1303.5992,227.3573,1308.6096,222.3468,1311.2355,232.13,1310.1" style="stroke:#000000;stroke-width:1.0;"/></g><!--link MP to DDSP--><g id="link_MP_DDSP"><path d="M78.11,456.32 C91.38,413.78 118.84,346.08 167,308.5 C186.55,293.25 205.2131,285.0611 229.2931,278.9711 " fill="none" id="MP-to-DDSP" style="stroke:#000000;stroke-width:1.0;"/><polygon fill="#000000" points="235.11,277.5,225.404,275.8288,230.2626,278.7259,227.3655,283.5846,235.11,277.5" style="stroke:#000000;stroke-width:1.0;"/></g><!--link MP to P--><g id="link_MP_P"><path d="M128.24,484.92 C179.37,476.78 245.2145,466.3027 288.5245,459.4127 " fill="none" id="MP-to-P" style="stroke:#000000;stroke-width:1.0;"/><polygon fill="#000000" points="294.45,458.47,284.9333,455.9337,289.5121,459.2555,286.1902,463.8343,294.45,458.47" style="stroke:#000000;stroke-width:1.0;"/></g><!--link MP to KP--><g id="link_MP_KP"><path d="M128.24,500.66 C165.67,504.49 208.2011,508.8398 248.5011,512.9598 " fill="none" id="MP-to-KP" style="stroke:#000000;stroke-width:1.0;"/><polygon fill="#000000" points="254.47,513.57,245.9235,508.6754,249.4959,513.0615,245.1099,516.6339,254.47,513.57" style="stroke:#000000;stroke-width:1.0;"/></g><!--link MP to USP--><g id="link_MP_USP"><path d="M72.31,532.61 C83.51,625.41 116.24,859.7 167,917.5 C185.68,938.77 206.7314,950.7935 233.2514,959.9935 " fill="none" id="MP-to-USP" style="stroke:#000000;stroke-width:1.0;"/><polygon fill="#000000" points="238.92,961.96,231.7281,955.2312,234.1962,960.3213,229.1061,962.7893,238.92,961.96" style="stroke:#000000;stroke-width:1.0;"/></g><!--link MP to PPG--><g id="link_MP_PPG"><path d="M67.86,532.71 C68.08,671.77 75.62,1148.71 167,1263.5 C184.5,1285.48 205.0503,1297.6059 231.4803,1306.6059 " fill="none" id="MP-to-PPG" style="stroke:#000000;stroke-width:1.0;"/><polygon fill="#000000" points="237.16,1308.54,229.9298,1301.8524,232.4269,1306.9283,227.351,1309.4254,237.16,1308.54" style="stroke:#000000;stroke-width:1.0;"/></g><!--link P to ZS--><g id="link_P_ZS"><path d="M333,437.72 C333,425.99 333,420.27 333,408.54 " fill="none" id="P-to-ZS" style="stroke:#000000;stroke-width:1.0;"/><polygon fill="#000000" points="333,402.54,329,411.54,333,407.54,337,411.54,333,402.54" style="stroke:#000000;stroke-width:1.0;"/></g><!--link USPISP to PSB--><g id="link_USPISP_PSB"><path d="M333,674.27 C333,657.78 333,643.89 333,628.77 " fill="none" id="USPISP-to-PSB" style="stroke:#000000;stroke-width:1.0;stroke-dasharray:7.0,7.0;"/><polygon fill="#000000" points="333,622.77,329,631.77,333,627.77,337,631.77,333,622.77" style="stroke:#000000;stroke-width:1.0;"/><text fill="#000000" font-family="sans-serif" font-size="13" lengthAdjust="spacing" textLength="45" x="299" y="653.0669">include</text></g><!--link USP to IZ--><g id="link_USP_IZ"><path d="M333,952.25 C333,935.62 333,920.87 333,906.55 " fill="none" id="USP-to-IZ" style="stroke:#000000;stroke-width:1.0;stroke-dasharray:7.0,7.0;"/><polygon fill="#000000" points="333,900.55,329,909.55,333,905.55,337,909.55,333,900.55" style="stroke:#000000;stroke-width:1.0;"/><text fill="#000000" font-family="sans-serif" font-size="13" lengthAdjust="spacing" textLength="45" x="299" y="931.0669">include</text></g><!--link RO to DU--><g id="link_RO_DU"><path d="M333,1134.99 C333,1119.9 333,1105.05 333,1089.59 " fill="none" id="RO-to-DU" style="stroke:#000000;stroke-width:1.0;stroke-dasharray:7.0,7.0;"/><polygon fill="#000000" points="333,1083.59,329,1092.59,333,1088.59,337,1092.59,333,1083.59" style="stroke:#000000;stroke-width:1.0;"/><text fill="#000000" font-family="sans-serif" font-size="13" lengthAdjust="spacing" textLength="45" x="299" y="1113.8169">include</text></g><!--link PPG to PG--><g id="link_PPG_PG"><path d="M333,1297.99 C333,1281.62 333,1266.99 333,1252.29 " fill="none" id="PPG-to-PG" style="stroke:#000000;stroke-width:1.0;stroke-dasharray:7.0,7.0;"/><polygon fill="#000000" points="333,1246.29,329,1255.29,333,1251.29,337,1255.29,333,1246.29" style="stroke:#000000;stroke-width:1.0;"/><text fill="#000000" font-family="sans-serif" font-size="13" lengthAdjust="spacing" textLength="45" x="299" y="1276.5669">include</text></g><!--link IZ to PDA--><g id="link_IZ_PDA"><path d="M333,866.15 C333,851.64 333,836.88 333,821.26 " fill="none" id="IZ-to-PDA" style="stroke:#000000;stroke-width:1.0;stroke-dasharray:7.0,7.0;"/><polygon fill="#000000" points="333,815.26,329,824.26,333,820.26,337,824.26,333,815.26" style="stroke:#000000;stroke-width:1.0;"/><text fill="#000000" font-family="sans-serif" font-size="13" lengthAdjust="spacing" textLength="45" x="299" y="845.3169">include</text></g><!--link IZ to ZS--><g id="link_IZ_ZS"><path d="M260.51,880.42 C216.94,874.06 166.39,857.32 147.5,815 C130.43,776.75 130.43,476.25 147.5,438 C169.8,388.02 229.2758,372.3846 276.1058,367.2446 " fill="none" id="IZ-to-ZS" style="stroke:#000000;stroke-width:1.0;"/><polygon fill="#000000" points="282.07,366.59,272.6873,363.5958,277.0998,367.1355,273.5601,371.5481,282.07,366.59" style="stroke:#000000;stroke-width:1.0;"/></g><!--link DU to PB--><g id="link_DU_PB"><path d="M239.03,1061.91 C201.3,1055.95 163.07,1040.89 147.5,1006 C127.35,960.85 127.35,161.15 147.5,116 C168.49,68.95 221.9381,52.8685 267.9181,47.0085 " fill="none" id="DU-to-PB" style="stroke:#000000;stroke-width:1.0;"/><polygon fill="#000000" points="273.87,46.25,264.4365,43.4199,268.9101,46.8821,265.4479,51.3557,273.87,46.25" style="stroke:#000000;stroke-width:1.0;"/></g><!--link PG to PB--><g id="link_PG_PB"><path d="M253.36,1230.13 C211.36,1226.55 164.98,1213.18 147.5,1174 C123.55,1120.32 123.55,169.68 147.5,116 C168.49,68.95 221.9381,52.8685 267.9181,47.0085 " fill="none" id="PG-to-PB" style="stroke:#000000;stroke-width:1.0;"/><polygon fill="#000000" points="273.87,46.25,264.4365,43.4199,268.9101,46.8821,265.4479,51.3557,273.87,46.25" style="stroke:#000000;stroke-width:1.0;"/></g><!--link PG to ZS--><g id="link_PG_ZS"><path d="M253.36,1230.13 C211.36,1226.55 164.98,1213.18 147.5,1174 C130.84,1136.66 130.84,475.34 147.5,438 C169.8,388.02 229.2758,372.3846 276.1058,367.2446 " fill="none" id="PG-to-ZS" style="stroke:#000000;stroke-width:1.0;"/><polygon fill="#000000" points="282.07,366.59,272.6873,363.5958,277.0998,367.1355,273.5601,371.5481,282.07,366.59" style="stroke:#000000;stroke-width:1.0;"/></g><!--SRC=[XLR1Zjew5DtdAoowe2mO3RofL7LHAJHz8pIQcOWq6tOczWH3i97ZC1MlxsFw8s_N_thNTWAsascpGFZSSyyzljSEr7l6ZrZY0zhWObzAqN1IY4f8f2JcDOGeLr5zOH7wWfjAVQFVLLonaXyWZ0hueD9XDJKjS4tHFn5oTByOtTSjKrJZGX8gBVRkmz-BZr-_08gb5AyMt5IG6VthoE922RbmyYmb90mMZ2hwef0IIB9ogn1XaXQA2Hv5OrGNkABezkRZvVly5XxqoeZQNh03_evcjxVpknRNpzYMHACdAcd9QYKPj0qrHo7nXhFz2CKPUigZbXMJ0-C6Yw-fUQrmjQESeMFLb2QQfzTmfWUnnmRF71WVHAt4patBqgxG8-Quf5A7Vlr7-SwcFwPHHqW5mMelJXp3WCusd2vWHxejc9Umtr46-w47T1G4jaClMit8pBKLMaDh29Ye3Tdeh3C8TqTWb6YRHqG4Wds2ay1Jae1hXCRNX9Lj92uOaEtkgQ6kFDrKGlpKEdS33u8hl5Tw43lZkhIa1u-LIxepX5y_5JsnolWgnGanhY4i5MTRtHixa2nTXZvZg76oBgz5ue2KK3n4ImBQCo4O26Uy1JDx_UNI9hltv_KwI5cUDx15n74bIXeqTVdaxxK-K0cNu8GkfuQMhfqyy_ZU14HDDwtiwZaO014R8tiKPxpHPrZBbhIksh6azrw2gFTDZUHLtUujNSrycfB4o0umvu6Ww2pqPvPcYs7PzuHEBbDfXPFOFxDw7FfqT1EnKrkxf7O07cEv7fQvl11QeTntrdPFcDu9w-WUNdrmtIK-rqng5HR5QDeSfpy-wuiyXfT4juJfmVefHrFpSfj-Hk_rjPg4u2gRH5eaOBb8i7m8rlOUz30VM3q7ckdz96eDkuK29Ev3IH-2ezt3kWBPG0EoiAOBw5lL8tLYFRVPW8-ix-CnxTbu3BIyzKC8vFqK8sn-R_GGqOs9tEZ8QZP1d-2bLLGDeKFn-K3yghpMHm8izQ1sqgvKjd2bj5Ri4v8u92H_8fW9E9Ha7J9qent2qYUOPlqc36VHLS_zgEwhw-_U2plFkEsqCvB5f8Nd8ToXRzKTcnw_FIGZe9izK4rtC1ZLs7Qjvy47xLHrUy9vT6LDC4pGpWCRfaq-5a0crTpu6JAKV6Rkx1nDxN9kcvJVGHOHhnpGR6OtcFy53flZJPi6RO6_cfGJ6_m0GHkw2pfgOgs57rqHz_aV]--></g></svg>